M48
METRIC,LZ,000.000
;FILE_FORMAT=3:3
;TYPE=PLATED
;Layer: PTH_Through
;EasyEDA v6.5.51, 2025-10-20 22:37:19
;f616cf4ec58d424a8f3e18252dc3b632,12abd119770744df9ef097ef44d34389,10
;Gerber Generator version 0.2
;Holesize 1 = 0.915 mm
T01C0.915
;Holesize 2 = 1.301 mm
T02C1.301
%
G05
G90
T01
X063119Y033147
X060579Y033147
X058039Y033147
X055499Y033147
X052959Y033147
X050419Y033147
X047879Y033147
X045339Y033147
X042799Y033147
X040259Y033147
X037719Y033147
X035179Y033147
X032639Y033147
X030099Y033147
X027559Y033147
X027559Y007647
X030099Y007647
X032639Y007647
X035179Y007647
X037719Y007647
X040259Y007647
X042799Y007647
X045339Y007647
X047879Y007647
X050419Y007647
X052959Y007647
X055499Y007647
X058039Y007647
X063119Y007647
X060579Y007647
T02
X082768Y045339
X077760Y045339
X078141Y012192
X083149Y012192
X031206Y045720
X026198Y045720
M30
