G04 Layer: BottomLayer*
G04 EasyEDA v6.5.51, 2025-10-20 22:37:19*
G04 f616cf4ec58d424a8f3e18252dc3b632,12abd119770744df9ef097ef44d34389,10*
G04 Gerber Generator version 0.2*
G04 Scale: 100 percent, Rotated: No, Reflected: No *
G04 Dimensions in millimeters *
G04 leading zeros omitted , absolute positions ,4 integer and 5 decimal *
%FSLAX45Y45*%
%MOMM*%

%ADD10C,0.6000*%
%ADD11C,0.4000*%
%ADD12C,2.0000*%
%ADD13C,1.5240*%
%ADD14C,0.0149*%

%LPD*%
D10*
X7775956Y4533900D02*
G01*
X3718991Y4533900D01*
X3680891Y4572000D01*
X2619756Y4572000D02*
G01*
X2861056Y4813300D01*
X3111500Y4813300D01*
X3403600Y4813300D01*
X3670300Y4572000D01*
X3683000Y4572000D02*
G01*
X3683000Y4572000D01*
X3441700Y4368800D01*
X3441700Y3746500D01*
X3009900Y3314700D01*
X5549900Y3314705D02*
G01*
X7645405Y1219200D01*
X7814056Y1219200D01*
X2755900Y764796D02*
G01*
X3114291Y406400D01*
X7502143Y406400D01*
X8314943Y1219200D01*
X3120646Y4572005D02*
G01*
X3120646Y3679449D01*
X2755902Y3314705D01*
X3009902Y3314705D02*
G01*
X3009902Y764697D01*
D11*
X8276843Y4533900D02*
G01*
X8089900Y4346955D01*
X8089900Y1206500D01*
X7785100Y901700D01*
X4670806Y901700D01*
X4533900Y764794D01*
D12*
G01*
X8276843Y4533900D03*
G01*
X7775956Y4533900D03*
G01*
X7814056Y1219200D03*
G01*
X8314943Y1219200D03*
D13*
G01*
X6311900Y3314700D03*
G01*
X6057900Y3314700D03*
G01*
X5803900Y3314700D03*
G01*
X5549900Y3314700D03*
G01*
X5295900Y3314700D03*
G01*
X5041900Y3314700D03*
G01*
X4787900Y3314700D03*
G01*
X4533900Y3314700D03*
G01*
X4279900Y3314700D03*
G01*
X4025900Y3314700D03*
G01*
X3771900Y3314700D03*
G01*
X3517900Y3314700D03*
G01*
X3263900Y3314700D03*
G01*
X3009900Y3314700D03*
G01*
X2755900Y3314700D03*
G01*
X2755900Y764692D03*
G01*
X3009900Y764692D03*
G01*
X3263900Y764692D03*
G01*
X3517900Y764692D03*
G01*
X3771900Y764692D03*
G01*
X4025900Y764692D03*
G01*
X4279900Y764692D03*
G01*
X4533900Y764692D03*
G01*
X4787900Y764692D03*
G01*
X5041900Y764692D03*
G01*
X5295900Y764692D03*
G01*
X5549900Y764692D03*
G01*
X5803900Y764692D03*
G01*
X6311900Y764692D03*
G01*
X6057900Y764692D03*
D12*
G01*
X3120643Y4572000D03*
G01*
X2619756Y4572000D03*
M02*
