M48
METRIC,LZ,000.000
;FILE_FORMAT=3:3
;TYPE=PLATED
;Layer: PTH_Through
;EasyEDA v6.5.51, 2025-10-20 22:37:19
;c1d3492fca7d471c8217cd0e5b442f4a,12abd119770744df9ef097ef44d34389,10
;Gerber Generator version 0.2
;Holesize 1 = 0.889 mm
T01C0.889
;Holesize 2 = 0.915 mm
T02C0.915
;Holesize 3 = 1.301 mm
T03C1.301
%
G05
G90
T01
X016002Y015494
X042291Y015494
X033782Y006604
X031242Y006604
X028702Y006604
X026162Y006604
X023622Y006604
X021082Y006604
X018542Y006604
X016002Y006604
X013462Y006604
X010922Y006604
X081788Y054737
X079248Y054737
X076708Y054737
X074168Y054737
X071628Y054737
X069088Y054737
T02
X056261Y054864
X053721Y054864
X051181Y054864
X048641Y054864
X046101Y054864
X043561Y054864
X041021Y054864
X038481Y054864
X035941Y054864
X033401Y054864
X030861Y054864
X028321Y054864
X025781Y054864
X023241Y054864
X020701Y054864
X020701Y029364
X023241Y029364
X025781Y029364
X028321Y029364
X030861Y029364
X033401Y029364
X035941Y029364
X038481Y029364
X041021Y029364
X043561Y029364
X046101Y029364
X048641Y029364
X051181Y029364
X056261Y029364
X053721Y029364
T03
X057531Y010160
X047371Y010160
X052451Y010160
X069378Y010541
X074387Y010541
X083439Y036358
X083439Y041366
X083439Y019594
X083439Y024602
M30
