G04 Layer: BottomLayer*
G04 EasyEDA v6.5.51, 2025-10-20 22:37:19*
G04 c1d3492fca7d471c8217cd0e5b442f4a,12abd119770744df9ef097ef44d34389,10*
G04 Gerber Generator version 0.2*
G04 Scale: 100 percent, Rotated: No, Reflected: No *
G04 Dimensions in millimeters *
G04 leading zeros omitted , absolute positions ,4 integer and 5 decimal *
%FSLAX45Y45*%
%MOMM*%

%ADD10C,0.5000*%
%ADD11C,0.2540*%
%ADD12C,2.5000*%
%ADD13R,1.5748X1.5748*%
%ADD14C,1.5748*%
%ADD15C,1.5240*%
%ADD16C,0.0146*%

%LPD*%
D10*
X1600225Y1549402D02*
G01*
X1600225Y660402D01*
D11*
X6908825Y5473702D02*
G01*
X6855508Y5473702D01*
D10*
X1092225Y660402D02*
G01*
X1092225Y767057D01*
X2070125Y2936392D02*
G01*
X1092255Y1958517D01*
X1092255Y767057D01*
X1092225Y767057D01*
D11*
X5372125Y2957395D02*
G01*
X5372125Y2936392D01*
D10*
X4864125Y2936499D02*
G01*
X2959125Y1031245D01*
X2225067Y1031245D01*
X1854225Y660402D01*
X5372125Y2936392D02*
G01*
X4229125Y1793392D01*
X4229125Y1549402D01*
X2070125Y5486402D02*
G01*
X2476525Y5892802D01*
X6383040Y5892802D01*
X6908825Y5473702D01*
X7416825Y5473702D02*
G01*
X4879517Y2936392D01*
X4864125Y2936392D01*
X6908825Y5473702D02*
G01*
X6908825Y5651502D01*
X7239025Y5981702D01*
X8178825Y5981702D01*
X8559825Y5600702D01*
X8559825Y3851655D01*
X8343925Y3635755D01*
X7162825Y5473702D02*
G01*
X7162825Y5664202D01*
X7338852Y5840221D01*
X7786898Y5840221D01*
X7924825Y5702302D01*
X7924825Y5473702D01*
X2324125Y5486402D02*
G01*
X2806725Y5003802D01*
X6692925Y5003802D01*
X7162825Y5473702D01*
X2616225Y660402D02*
G01*
X2857525Y419102D01*
X6362725Y419102D01*
X6937783Y1054102D01*
X4737125Y1016002D02*
G01*
X4737125Y1473194D01*
X5223283Y1959355D01*
X8343925Y1959355D01*
X7924825Y5473702D02*
G01*
X7924825Y4555744D01*
X8343925Y4136644D01*
X7438643Y1371600D02*
G01*
X7670800Y1371600D01*
X8077200Y1371600D01*
X8128508Y1371600D01*
X8610600Y1853692D01*
X8610600Y2218436D01*
X8343900Y2485136D01*
X5245100Y1016000D02*
G01*
X5473700Y1206500D01*
X5689600Y1371600D01*
X7438643Y1371600D01*
X7438669Y1054100D01*
X7438669Y1054100D02*
G01*
X7442200Y685800D01*
X7035502Y279402D01*
X1676425Y279402D01*
X1663725Y292102D01*
X1346225Y660402D01*
X7670825Y5473702D02*
G01*
X5372125Y3175002D01*
X5372125Y2957395D01*
X8343925Y4136649D02*
G01*
X7899425Y3692149D01*
X7899425Y2904749D01*
X8343925Y2460249D01*
X2870225Y660400D02*
G01*
X3073425Y863600D01*
X4000500Y863600D01*
X4216400Y647700D01*
X5549900Y647700D01*
X5753117Y850917D01*
X5753117Y1015997D01*
D12*
G01*
X5753125Y1016000D03*
G01*
X4737125Y1016000D03*
G01*
X5245125Y1016000D03*
G01*
X6937781Y1054100D03*
G01*
X7438669Y1054100D03*
D13*
G01*
X1600225Y1549400D03*
G01*
X4229125Y1549400D03*
D12*
G01*
X8343925Y3635755D03*
G01*
X8343925Y4136644D03*
G01*
X8343900Y1959355D03*
G01*
X8343900Y2460244D03*
D14*
G01*
X3378225Y660400D03*
G01*
X3124225Y660400D03*
G01*
X2870225Y660400D03*
G01*
X2616225Y660400D03*
G01*
X2362225Y660400D03*
G01*
X2108225Y660400D03*
G01*
X1854225Y660400D03*
G01*
X1600225Y660400D03*
G01*
X1346225Y660400D03*
D13*
G01*
X1092225Y660400D03*
D14*
G01*
X8178825Y5473700D03*
G01*
X7924825Y5473700D03*
G01*
X7670825Y5473700D03*
G01*
X7416825Y5473700D03*
G01*
X7162825Y5473700D03*
D13*
G01*
X6908825Y5473700D03*
D15*
G01*
X5626125Y5486400D03*
G01*
X5372125Y5486400D03*
G01*
X5118125Y5486400D03*
G01*
X4864125Y5486400D03*
G01*
X4610125Y5486400D03*
G01*
X4356125Y5486400D03*
G01*
X4102125Y5486400D03*
G01*
X3848125Y5486400D03*
G01*
X3594125Y5486400D03*
G01*
X3340125Y5486400D03*
G01*
X3086125Y5486400D03*
G01*
X2832125Y5486400D03*
G01*
X2578125Y5486400D03*
G01*
X2324125Y5486400D03*
G01*
X2070125Y5486400D03*
G01*
X2070125Y2936392D03*
G01*
X2324125Y2936392D03*
G01*
X2578125Y2936392D03*
G01*
X2832125Y2936392D03*
G01*
X3086125Y2936392D03*
G01*
X3340125Y2936392D03*
G01*
X3594125Y2936392D03*
G01*
X3848125Y2936392D03*
G01*
X4102125Y2936392D03*
G01*
X4356125Y2936392D03*
G01*
X4610125Y2936392D03*
G01*
X4864125Y2936392D03*
G01*
X5118125Y2936392D03*
G01*
X5626125Y2936392D03*
G01*
X5372125Y2936392D03*
M02*
