G04 Layer: TopSilkscreenLayer*
G04 EasyEDA v6.5.51, 2025-10-20 22:37:19*
G04 c1d3492fca7d471c8217cd0e5b442f4a,12abd119770744df9ef097ef44d34389,10*
G04 Gerber Generator version 0.2*
G04 Scale: 100 percent, Rotated: No, Reflected: No *
G04 Dimensions in millimeters *
G04 leading zeros omitted , absolute positions ,4 integer and 5 decimal *
%FSLAX45Y45*%
%MOMM*%

%ADD10C,0.1524*%
%ADD11C,0.2540*%
%ADD12C,0.2032*%
%ADD13C,0.2030*%
%ADD14C,0.0153*%

%LPD*%
D10*
X5257970Y1620111D02*
G01*
X5216314Y1511145D01*
X5257970Y1620111D02*
G01*
X5299372Y1511145D01*
X5231808Y1547467D02*
G01*
X5283878Y1547467D01*
X5333662Y1620111D02*
G01*
X5333662Y1511145D01*
X5333662Y1620111D02*
G01*
X5406560Y1511145D01*
X5406560Y1620111D02*
G01*
X5406560Y1511145D01*
X5440850Y1620111D02*
G01*
X5440850Y1511145D01*
X5440850Y1620111D02*
G01*
X5508414Y1620111D01*
X5440850Y1568295D02*
G01*
X5482252Y1568295D01*
X5440850Y1511145D02*
G01*
X5508414Y1511145D01*
X5542704Y1620111D02*
G01*
X5542704Y1511145D01*
X5542704Y1620111D02*
G01*
X5584106Y1511145D01*
X5625762Y1620111D02*
G01*
X5584106Y1511145D01*
X5625762Y1620111D02*
G01*
X5625762Y1511145D01*
X5691294Y1620111D02*
G01*
X5680880Y1615031D01*
X5670466Y1604617D01*
X5665132Y1594203D01*
X5660052Y1578455D01*
X5660052Y1552547D01*
X5665132Y1537053D01*
X5670466Y1526639D01*
X5680880Y1516225D01*
X5691294Y1511145D01*
X5711868Y1511145D01*
X5722282Y1516225D01*
X5732696Y1526639D01*
X5738030Y1537053D01*
X5743110Y1552547D01*
X5743110Y1578455D01*
X5738030Y1594203D01*
X5732696Y1604617D01*
X5722282Y1615031D01*
X5711868Y1620111D01*
X5691294Y1620111D01*
X5777400Y1620111D02*
G01*
X5777400Y1511145D01*
X5777400Y1620111D02*
G01*
X5819056Y1511145D01*
X5860458Y1620111D02*
G01*
X5819056Y1511145D01*
X5860458Y1620111D02*
G01*
X5860458Y1511145D01*
X5894748Y1620111D02*
G01*
X5894748Y1511145D01*
X5894748Y1620111D02*
G01*
X5962312Y1620111D01*
X5894748Y1568295D02*
G01*
X5936404Y1568295D01*
X5894748Y1511145D02*
G01*
X5962312Y1511145D01*
X6032924Y1620111D02*
G01*
X6032924Y1511145D01*
X5996602Y1620111D02*
G01*
X6069500Y1620111D01*
X6103790Y1620111D02*
G01*
X6103790Y1511145D01*
X6103790Y1620111D02*
G01*
X6150526Y1620111D01*
X6166020Y1615031D01*
X6171354Y1609697D01*
X6176434Y1599283D01*
X6176434Y1588869D01*
X6171354Y1578455D01*
X6166020Y1573375D01*
X6150526Y1568295D01*
X6103790Y1568295D01*
X6140112Y1568295D02*
G01*
X6176434Y1511145D01*
X6241966Y1620111D02*
G01*
X6231552Y1615031D01*
X6221138Y1604617D01*
X6215804Y1594203D01*
X6210724Y1578455D01*
X6210724Y1552547D01*
X6215804Y1537053D01*
X6221138Y1526639D01*
X6231552Y1516225D01*
X6241966Y1511145D01*
X6262794Y1511145D01*
X6272954Y1516225D01*
X6283368Y1526639D01*
X6288702Y1537053D01*
X6293782Y1552547D01*
X6293782Y1578455D01*
X6288702Y1594203D01*
X6283368Y1604617D01*
X6272954Y1615031D01*
X6262794Y1620111D01*
X6241966Y1620111D01*
X7164349Y1675892D02*
G01*
X7164349Y1566926D01*
X7164349Y1675892D02*
G01*
X7211085Y1675892D01*
X7226579Y1670812D01*
X7231913Y1665478D01*
X7236993Y1655063D01*
X7236993Y1639570D01*
X7231913Y1629155D01*
X7226579Y1624076D01*
X7211085Y1618742D01*
X7164349Y1618742D01*
X7271283Y1675892D02*
G01*
X7271283Y1566926D01*
X7305573Y1675892D02*
G01*
X7305573Y1566926D01*
X7305573Y1675892D02*
G01*
X7352309Y1675892D01*
X7368057Y1670812D01*
X7373137Y1665478D01*
X7378471Y1655063D01*
X7378471Y1644650D01*
X7373137Y1634236D01*
X7368057Y1629155D01*
X7352309Y1624076D01*
X7305573Y1624076D01*
X7342149Y1624076D02*
G01*
X7378471Y1566926D01*
X7454163Y1675892D02*
G01*
X7412761Y1566926D01*
X7454163Y1675892D02*
G01*
X7495819Y1566926D01*
X7428255Y1603247D02*
G01*
X7480325Y1603247D01*
X7530109Y1675892D02*
G01*
X7530109Y1566926D01*
X7530109Y1675892D02*
G01*
X7602753Y1566926D01*
X7602753Y1675892D02*
G01*
X7602753Y1566926D01*
X7668285Y1675892D02*
G01*
X7657871Y1670812D01*
X7647457Y1660397D01*
X7642377Y1649984D01*
X7637043Y1634236D01*
X7637043Y1608328D01*
X7642377Y1592834D01*
X7647457Y1582420D01*
X7657871Y1572005D01*
X7668285Y1566926D01*
X7689113Y1566926D01*
X7699527Y1572005D01*
X7709941Y1582420D01*
X7715021Y1592834D01*
X7720355Y1608328D01*
X7720355Y1634236D01*
X7715021Y1649984D01*
X7709941Y1660397D01*
X7699527Y1670812D01*
X7689113Y1675892D01*
X7668285Y1675892D01*
X7754645Y1675892D02*
G01*
X7754645Y1566926D01*
X7754645Y1675892D02*
G01*
X7796047Y1566926D01*
X7837703Y1675892D02*
G01*
X7796047Y1566926D01*
X7837703Y1675892D02*
G01*
X7837703Y1566926D01*
X7871993Y1675892D02*
G01*
X7871993Y1566926D01*
X7871993Y1675892D02*
G01*
X7939557Y1675892D01*
X7871993Y1624076D02*
G01*
X7913649Y1624076D01*
X7871993Y1566926D02*
G01*
X7939557Y1566926D01*
X8010169Y1675892D02*
G01*
X8010169Y1566926D01*
X7973847Y1675892D02*
G01*
X8046491Y1675892D01*
X8080781Y1675892D02*
G01*
X8080781Y1566926D01*
X8080781Y1675892D02*
G01*
X8127517Y1675892D01*
X8143265Y1670812D01*
X8148345Y1665478D01*
X8153679Y1655063D01*
X8153679Y1644650D01*
X8148345Y1634236D01*
X8143265Y1629155D01*
X8127517Y1624076D01*
X8080781Y1624076D01*
X8117103Y1624076D02*
G01*
X8153679Y1566926D01*
X8218957Y1675892D02*
G01*
X8208543Y1670812D01*
X8198129Y1660397D01*
X8193049Y1649984D01*
X8187969Y1634236D01*
X8187969Y1608328D01*
X8193049Y1592834D01*
X8198129Y1582420D01*
X8208543Y1572005D01*
X8218957Y1566926D01*
X8239785Y1566926D01*
X8250199Y1572005D01*
X8260613Y1582420D01*
X8265693Y1592834D01*
X8271027Y1608328D01*
X8271027Y1634236D01*
X8265693Y1649984D01*
X8260613Y1660397D01*
X8250199Y1670812D01*
X8239785Y1675892D01*
X8218957Y1675892D01*
X1652295Y1806955D02*
G01*
X1652295Y1723897D01*
X1646961Y1708150D01*
X1641881Y1703070D01*
X1631467Y1697989D01*
X1621053Y1697989D01*
X1610639Y1703070D01*
X1605305Y1708150D01*
X1600225Y1723897D01*
X1600225Y1734312D01*
X1686585Y1786128D02*
G01*
X1696745Y1791462D01*
X1712493Y1806955D01*
X1712493Y1697989D01*
X4281195Y1806955D02*
G01*
X4281195Y1723897D01*
X4275861Y1708150D01*
X4270781Y1703070D01*
X4260367Y1697989D01*
X4249953Y1697989D01*
X4239539Y1703070D01*
X4234205Y1708150D01*
X4229125Y1723897D01*
X4229125Y1734312D01*
X4320565Y1781047D02*
G01*
X4320565Y1786128D01*
X4325645Y1796542D01*
X4330979Y1801876D01*
X4341393Y1806955D01*
X4362221Y1806955D01*
X4372635Y1801876D01*
X4377715Y1796542D01*
X4382795Y1786128D01*
X4382795Y1775713D01*
X4377715Y1765300D01*
X4367301Y1749805D01*
X4315485Y1697989D01*
X4388129Y1697989D01*
X7722133Y3924554D02*
G01*
X7722133Y3872737D01*
X7768869Y3867404D01*
X7763789Y3872737D01*
X7758455Y3888231D01*
X7758455Y3903979D01*
X7763789Y3919473D01*
X7773949Y3929887D01*
X7789697Y3934968D01*
X7800111Y3934968D01*
X7815605Y3929887D01*
X7826019Y3919473D01*
X7831099Y3903979D01*
X7831099Y3888231D01*
X7826019Y3872737D01*
X7820939Y3867404D01*
X7810525Y3862323D01*
X7722133Y3969257D02*
G01*
X7831099Y4010913D01*
X7722133Y4052570D02*
G01*
X7831099Y4010913D01*
X7742943Y2185923D02*
G01*
X7737609Y2196337D01*
X7722115Y2211831D01*
X7831081Y2211831D01*
X7748023Y2251455D02*
G01*
X7742943Y2251455D01*
X7732529Y2256536D01*
X7727195Y2261870D01*
X7722115Y2272284D01*
X7722115Y2292857D01*
X7727195Y2303271D01*
X7732529Y2308605D01*
X7742943Y2313686D01*
X7753357Y2313686D01*
X7763771Y2308605D01*
X7779265Y2298192D01*
X7831081Y2246121D01*
X7831081Y2319020D01*
X7722115Y2353310D02*
G01*
X7831081Y2394712D01*
X7722115Y2436368D02*
G01*
X7831081Y2394712D01*
X2251481Y928115D02*
G01*
X2209825Y819150D01*
X2251481Y928115D02*
G01*
X2292883Y819150D01*
X2225319Y855471D02*
G01*
X2277389Y855471D01*
X2327173Y928115D02*
G01*
X2327173Y819150D01*
X2327173Y928115D02*
G01*
X2363495Y928115D01*
X2379243Y923036D01*
X2389657Y912621D01*
X2394737Y902207D01*
X2400071Y886460D01*
X2400071Y860552D01*
X2394737Y845057D01*
X2389657Y834644D01*
X2379243Y824229D01*
X2363495Y819150D01*
X2327173Y819150D01*
X2507005Y912621D02*
G01*
X2496591Y923036D01*
X2481097Y928115D01*
X2460269Y928115D01*
X2444775Y923036D01*
X2434361Y912621D01*
X2434361Y902207D01*
X2439441Y891794D01*
X2444775Y886460D01*
X2454935Y881379D01*
X2486177Y870965D01*
X2496591Y865886D01*
X2501925Y860552D01*
X2507005Y850137D01*
X2507005Y834644D01*
X2496591Y824229D01*
X2481097Y819150D01*
X2460269Y819150D01*
X2444775Y824229D01*
X2434361Y834644D01*
X2541295Y907287D02*
G01*
X2551709Y912621D01*
X2567203Y928115D01*
X2567203Y819150D01*
X2601493Y907287D02*
G01*
X2611907Y912621D01*
X2627655Y928115D01*
X2627655Y819150D01*
X2661945Y907287D02*
G01*
X2672105Y912621D01*
X2687853Y928115D01*
X2687853Y819150D01*
X2784373Y928115D02*
G01*
X2732557Y928115D01*
X2727223Y881379D01*
X2732557Y886460D01*
X2748051Y891794D01*
X2763545Y891794D01*
X2779293Y886460D01*
X2789707Y876300D01*
X2794787Y860552D01*
X2794787Y850137D01*
X2789707Y834644D01*
X2779293Y824229D01*
X2763545Y819150D01*
X2748051Y819150D01*
X2732557Y824229D01*
X2727223Y829310D01*
X2722143Y839723D01*
X7591069Y5725911D02*
G01*
X7580655Y5736325D01*
X7565161Y5741405D01*
X7544333Y5741405D01*
X7528839Y5736325D01*
X7518425Y5725911D01*
X7518425Y5715497D01*
X7523505Y5705083D01*
X7528839Y5699749D01*
X7539253Y5694669D01*
X7570495Y5684255D01*
X7580655Y5679175D01*
X7585989Y5673841D01*
X7591069Y5663427D01*
X7591069Y5647933D01*
X7580655Y5637519D01*
X7565161Y5632439D01*
X7544333Y5632439D01*
X7528839Y5637519D01*
X7518425Y5647933D01*
X7625359Y5741405D02*
G01*
X7625359Y5632439D01*
X7625359Y5741405D02*
G01*
X7692923Y5741405D01*
X7625359Y5689589D02*
G01*
X7667015Y5689589D01*
X7625359Y5632439D02*
G01*
X7692923Y5632439D01*
X7727213Y5741405D02*
G01*
X7727213Y5632439D01*
X7727213Y5741405D02*
G01*
X7800111Y5632439D01*
X7800111Y5741405D02*
G01*
X7800111Y5632439D01*
X7896631Y5741405D02*
G01*
X7844815Y5741405D01*
X7839481Y5694669D01*
X7844815Y5699749D01*
X7860309Y5705083D01*
X7875803Y5705083D01*
X7891551Y5699749D01*
X7901965Y5689589D01*
X7907045Y5673841D01*
X7907045Y5663427D01*
X7901965Y5647933D01*
X7891551Y5637519D01*
X7875803Y5632439D01*
X7860309Y5632439D01*
X7844815Y5637519D01*
X7839481Y5642599D01*
X7834401Y5653013D01*
X7993405Y5741405D02*
G01*
X7941335Y5668761D01*
X8019313Y5668761D01*
X7993405Y5741405D02*
G01*
X7993405Y5632439D01*
X6351041Y4216389D02*
G01*
X6273063Y4216389D01*
X6257569Y4211309D01*
X6247155Y4200895D01*
X6242075Y4185147D01*
X6242075Y4174733D01*
X6247155Y4159239D01*
X6257569Y4148825D01*
X6273063Y4143745D01*
X6351041Y4143745D01*
X6330213Y4109455D02*
G01*
X6335547Y4099041D01*
X6351041Y4083293D01*
X6242075Y4083293D01*
D11*
X4814138Y717001D02*
G01*
X4814138Y802845D01*
X4778070Y838918D01*
X4695012Y838918D01*
X4658695Y717001D02*
G01*
X4658695Y802850D01*
X4694763Y838918D01*
X4777821Y838918D01*
X5322135Y716996D02*
G01*
X5322135Y802840D01*
X5286070Y838913D01*
X5203012Y838913D01*
X5166697Y716996D02*
G01*
X5166697Y802845D01*
X5202760Y838913D01*
X5285818Y838913D01*
X5674682Y717001D02*
G01*
X5674682Y802850D01*
X5710750Y838918D01*
X5793808Y838918D01*
X5830125Y717001D02*
G01*
X5830125Y802845D01*
X5794057Y838918D01*
X5710999Y838918D01*
X4483122Y794202D02*
G01*
X6007125Y794202D01*
X4483125Y1408628D02*
G01*
X4443128Y1425991D01*
X4443128Y1325996D01*
X4483125Y1345684D01*
X4483122Y1475994D02*
G01*
X6007125Y1475994D01*
X4483125Y1475994D02*
G01*
X4483125Y715995D01*
X6007125Y1475994D02*
G01*
X6007125Y715995D01*
X4483122Y715995D02*
G01*
X6007125Y715995D01*
X4483122Y1256075D02*
G01*
X6007125Y1256075D01*
X6688226Y832307D02*
G01*
X7688224Y832307D01*
X6687693Y1446733D02*
G01*
X6648221Y1464099D01*
X6648221Y1364099D01*
X6687693Y1383792D01*
X6688226Y1514099D02*
G01*
X7688224Y1514099D01*
X6688226Y1514099D02*
G01*
X6688226Y754100D01*
X7688224Y1514099D02*
G01*
X7688224Y754100D01*
X6688226Y754100D02*
G01*
X7688224Y754100D01*
X6688226Y1294180D02*
G01*
X7688224Y1294180D01*
D12*
X1727225Y1422400D02*
G01*
X1473225Y1422400D01*
X1473225Y1676400D01*
X1727225Y1676400D01*
X1727225Y1485900D01*
D13*
X1727225Y1422400D02*
G01*
X1727225Y1485900D01*
D12*
X4356125Y1422400D02*
G01*
X4102125Y1422400D01*
X4102125Y1676400D01*
X4356125Y1676400D01*
X4356125Y1485900D01*
D13*
X4356125Y1422400D02*
G01*
X4356125Y1485900D01*
D11*
X8565718Y3386201D02*
G01*
X8565718Y4386198D01*
X7951292Y3385667D02*
G01*
X7933926Y3346195D01*
X8033926Y3346195D01*
X8014233Y3385667D01*
X7883926Y3386201D02*
G01*
X7883926Y4386198D01*
X7883926Y3386201D02*
G01*
X8643924Y3386201D01*
X7883926Y4386198D02*
G01*
X8643924Y4386198D01*
X8643924Y3386201D02*
G01*
X8643924Y4386198D01*
X8103844Y3386201D02*
G01*
X8103844Y4386198D01*
X8565700Y1709801D02*
G01*
X8565700Y2709798D01*
X7951274Y1709267D02*
G01*
X7933908Y1669795D01*
X8033908Y1669795D01*
X8014215Y1709267D01*
X7883908Y1709801D02*
G01*
X7883908Y2709798D01*
X7883908Y1709801D02*
G01*
X8643907Y1709801D01*
X7883908Y2709798D02*
G01*
X8643907Y2709798D01*
X8643907Y1709801D02*
G01*
X8643907Y2709798D01*
X8103826Y1709801D02*
G01*
X8103826Y2709798D01*
D12*
X1155725Y787400D02*
G01*
X965225Y787400D01*
X965225Y533400D01*
X3505225Y533400D01*
X3505225Y787400D01*
D13*
X3505225Y787400D02*
G01*
X1155725Y787400D01*
D12*
X6972325Y5600689D02*
G01*
X6781825Y5600689D01*
X6781825Y5346689D01*
X8305825Y5346689D01*
X8305825Y5600689D01*
D13*
X8305825Y5600689D02*
G01*
X6972325Y5600689D01*
D11*
X6210325Y5619739D02*
G01*
X6210325Y2787639D01*
X952525Y2787639D01*
X952525Y5619739D01*
X6210325Y5619739D01*
X5499125Y5232389D02*
G01*
X5499125Y3174989D01*
X3632225Y3174989D01*
X3632225Y5232389D01*
X5499125Y5232389D01*
X1333525Y4584689D02*
G01*
X1333525Y3733789D01*
X977925Y3733789D01*
X977925Y4584689D01*
X1333525Y4584689D01*
M02*
