G04 Layer: TopSolderMaskLayer*
G04 EasyEDA v6.5.51, 2025-10-20 22:37:19*
G04 c1d3492fca7d471c8217cd0e5b442f4a,12abd119770744df9ef097ef44d34389,10*
G04 Gerber Generator version 0.2*
G04 Scale: 100 percent, Rotated: No, Reflected: No *
G04 Dimensions in millimeters *
G04 leading zeros omitted , absolute positions ,4 integer and 5 decimal *
%FSLAX45Y45*%
%MOMM*%

%AMMACRO1*4,1,8,-0.8085,-0.8382,-0.8382,-0.8082,-0.8382,0.8085,-0.8085,0.8382,0.8082,0.8382,0.8382,0.8085,0.8382,-0.8082,0.8082,-0.8382,-0.8085,-0.8382,0*%
%ADD10C,2.6016*%
%ADD11MACRO1*%
%ADD12C,1.6764*%
%ADD13C,1.6256*%
%ADD14C,0.0183*%

%LPD*%
D10*
G01*
X5753125Y1016000D03*
G01*
X4737125Y1016000D03*
G01*
X5245125Y1016000D03*
G01*
X6937781Y1054100D03*
G01*
X7438669Y1054100D03*
D11*
G01*
X1600225Y1549400D03*
G01*
X4229125Y1549400D03*
D10*
G01*
X8343925Y3635755D03*
G01*
X8343925Y4136644D03*
G01*
X8343900Y1959355D03*
G01*
X8343900Y2460244D03*
D12*
G01*
X3378225Y660400D03*
G01*
X3124225Y660400D03*
G01*
X2870225Y660400D03*
G01*
X2616225Y660400D03*
G01*
X2362225Y660400D03*
G01*
X2108225Y660400D03*
G01*
X1854225Y660400D03*
G01*
X1600225Y660400D03*
G01*
X1346225Y660400D03*
D11*
G01*
X1092225Y660400D03*
D12*
G01*
X8178825Y5473700D03*
G01*
X7924825Y5473700D03*
G01*
X7670825Y5473700D03*
G01*
X7416825Y5473700D03*
G01*
X7162825Y5473700D03*
D11*
G01*
X6908825Y5473700D03*
D13*
G01*
X5626125Y5486400D03*
G01*
X5372125Y5486400D03*
G01*
X5118125Y5486400D03*
G01*
X4864125Y5486400D03*
G01*
X4610125Y5486400D03*
G01*
X4356125Y5486400D03*
G01*
X4102125Y5486400D03*
G01*
X3848125Y5486400D03*
G01*
X3594125Y5486400D03*
G01*
X3340125Y5486400D03*
G01*
X3086125Y5486400D03*
G01*
X2832125Y5486400D03*
G01*
X2578125Y5486400D03*
G01*
X2324125Y5486400D03*
G01*
X2070125Y5486400D03*
G01*
X2070125Y2936392D03*
G01*
X2324125Y2936392D03*
G01*
X2578125Y2936392D03*
G01*
X2832125Y2936392D03*
G01*
X3086125Y2936392D03*
G01*
X3340125Y2936392D03*
G01*
X3594125Y2936392D03*
G01*
X3848125Y2936392D03*
G01*
X4102125Y2936392D03*
G01*
X4356125Y2936392D03*
G01*
X4610125Y2936392D03*
G01*
X4864125Y2936392D03*
G01*
X5118125Y2936392D03*
G01*
X5626125Y2936392D03*
G01*
X5372125Y2936392D03*
M02*
