M48
METRIC,LZ,000.000
;FILE_FORMAT=3:3
;TYPE=PLATED
;Layer: PTH_Through
;EasyEDA v6.5.51, 2025-10-20 22:37:19
;00cfa3d97b714e56bb817cb7b1a422d8,12abd119770744df9ef097ef44d34389,10
;Gerber Generator version 0.2
;Holesize 1 = 0.889 mm
T01C0.889
;Holesize 2 = 0.915 mm
T02C0.915
;Holesize 3 = 1.301 mm
T03C1.301
%
G05
G90
T01
X047015Y-041735
X047015Y-044275
X047015Y-046815
X047015Y-049355
X005715Y-049355
X005715Y-046815
X005715Y-044275
X005715Y-041735
T02
X051435Y-007493
X048895Y-007493
X046355Y-007493
X043815Y-007493
X041275Y-007493
X038735Y-007493
X036195Y-007493
X033655Y-007493
X031115Y-007493
X028575Y-007493
X026035Y-007493
X023495Y-007493
X020955Y-007493
X018415Y-007493
X015875Y-007493
X015875Y-032993
X018415Y-032993
X020955Y-032993
X023495Y-032993
X026035Y-032993
X028575Y-032993
X031115Y-032993
X033655Y-032993
X036195Y-032993
X038735Y-032993
X041275Y-032993
X043815Y-032993
X046355Y-032993
X051435Y-032993
X048895Y-032993
T03
X017181Y-059182
X022189Y-059182
M30
