G04 Layer: BottomSolderMaskLayer*
G04 EasyEDA v6.5.51, 2025-10-20 22:37:19*
G04 00cfa3d97b714e56bb817cb7b1a422d8,12abd119770744df9ef097ef44d34389,10*
G04 Gerber Generator version 0.2*
G04 Scale: 100 percent, Rotated: No, Reflected: No *
G04 Dimensions in millimeters *
G04 leading zeros omitted , absolute positions ,4 integer and 5 decimal *
%FSLAX45Y45*%
%MOMM*%

%AMMACRO1*4,1,8,-0.8085,-0.8382,-0.8382,-0.8082,-0.8382,0.8085,-0.8085,0.8382,0.8082,0.8382,0.8382,0.8085,0.8382,-0.8082,0.8082,-0.8382,-0.8085,-0.8382,0*%
%ADD10C,2.4016*%
%ADD11MACRO1*%
%ADD12C,1.6764*%
%ADD13C,1.6256*%
%ADD14C,0.0135*%

%LPD*%
D10*
G01*
X1718055Y-5918200D03*
G01*
X2218943Y-5918200D03*
D11*
G01*
X4701489Y-4173499D03*
D12*
G01*
X4701489Y-4427499D03*
G01*
X4701489Y-4681499D03*
G01*
X4701489Y-4935499D03*
D11*
G01*
X571500Y-4935499D03*
D12*
G01*
X571500Y-4681499D03*
G01*
X571500Y-4427499D03*
G01*
X571500Y-4173499D03*
D13*
G01*
X5143500Y-749300D03*
G01*
X4889500Y-749300D03*
G01*
X4635500Y-749300D03*
G01*
X4381500Y-749300D03*
G01*
X4127500Y-749300D03*
G01*
X3873500Y-749300D03*
G01*
X3619500Y-749300D03*
G01*
X3365500Y-749300D03*
G01*
X3111500Y-749300D03*
G01*
X2857500Y-749300D03*
G01*
X2603500Y-749300D03*
G01*
X2349500Y-749300D03*
G01*
X2095500Y-749300D03*
G01*
X1841500Y-749300D03*
G01*
X1587500Y-749300D03*
G01*
X1587500Y-3299307D03*
G01*
X1841500Y-3299307D03*
G01*
X2095500Y-3299307D03*
G01*
X2349500Y-3299307D03*
G01*
X2603500Y-3299307D03*
G01*
X2857500Y-3299307D03*
G01*
X3111500Y-3299307D03*
G01*
X3365500Y-3299307D03*
G01*
X3619500Y-3299307D03*
G01*
X3873500Y-3299307D03*
G01*
X4127500Y-3299307D03*
G01*
X4381500Y-3299307D03*
G01*
X4635500Y-3299307D03*
G01*
X5143500Y-3299307D03*
G01*
X4889500Y-3299307D03*
M02*
