<?xml version="1.0" encoding="utf-8"?>
<!-- Generator: Adobe Illustrator 24.2.0, SVG Export Plug-In . SVG Version: 6.00 Build 0)  -->
<svg version="1.1" id="Capa_1" xmlns="http://www.w3.org/2000/svg" xmlns:xlink="http://www.w3.org/1999/xlink" x="0px" y="0px"
	 viewBox="0 0 595 595" style="enable-background:new 0 0 595 595;" xml:space="preserve">
<style type="text/css">
	.st0{fill:#515151;}
</style>
<g>
	<path class="st0" d="M484.85,487.97c-3.74,0-7.11,0-10.48,0c-53.15,0-106.31-0.14-159.46,0.16c-7.5,0.04-9.74-1.99-9.7-9.59
		c0.31-54.29,0.32-108.59-0.01-162.89c-0.05-7.86,2.7-9.48,9.93-9.46c78.3,0.22,156.6,0.25,234.9-0.04
		c8.07-0.03,10.13,2.52,9.95,10.24c-0.48,20.79-0.16,41.6-0.16,63.3c-54.22,0-107.52,0-162.46,0c0,11.23-0.3,21.64,0.38,31.98
		c0.09,1.33,5.27,3.3,8.1,3.32c42.29,0.21,84.59,0.15,126.88,0.15c8.52,0,17.03,0,26.28,0c0.21,3.54,0.53,6.29,0.53,9.04
		c0.03,48.3-0.17,96.59,0.21,144.88c0.06,7.9-2.66,9.42-9.84,9.4c-78.3-0.22-156.6-0.22-234.9,0.01c-7.39,0.02-10.01-1.88-9.79-9.6
		c0.53-18.56,0.48-37.15,0.02-55.72c-0.18-7.3,2.4-9.1,9.35-9.07c52.58,0.25,105.16,0.13,157.74,0.13
		C487.16,504.23,487.16,504.23,484.85,487.97z M539.61,434.81c-53.87,0-107.17,0-161.03,0c0-25.06,0-49.16,0-74.16
		c53.99,0,107.31,0,161.22,0c0-11.85,0-22.81,0-34.19c-2.67-0.26-4.9-0.67-7.13-0.67c-66.58-0.03-133.17,0.05-199.75-0.15
		c-6.37-0.02-8.33,1.88-8.29,8.3c0.25,42.29,0.12,84.59,0.16,126.88c0,2.49,0.38,4.98,0.63,8.1c4.05,0,7.44,0,10.84,0
		c48.01,0,96.02,0,144.03,0c6.57,0,13.17-0.27,19.7,0.21c1.91,0.14,5.23,2.4,5.26,3.74c0.36,17,0.24,34.01,0.24,51.98
		c-4.97,0-8.62,0-12.28,0c-52.01,0-104.02,0-156.03,0c-2.57,0-5.28-0.42-7.67,0.26c-1.77,0.5-4.4,2.43-4.45,3.8
		c-0.38,9.9-0.21,19.81-0.21,30.14c72.16,0,143.17,0,214.75,0C539.61,517.84,539.61,477.1,539.61,434.81z"/>
	<path class="st0" d="M35.43,17.86c30.57,0,60.47,0,91.49,0c0,59.8,0,119.31,0,179.45c23.77,0,46.43,0,70.28,0
		c0-3.52,0-6.84,0-10.16c0-53.42,0.14-106.84-0.16-160.26c-0.04-7.49,1.97-9.79,9.59-9.66c26.82,0.45,53.65,0.17,81.54,0.17
		c0.22,3.52,0.58,6.51,0.58,9.5c0.03,84.56-0.01,169.12,0.1,253.67c0.01,5.88-0.44,9.33-8.05,9.31
		c-79.41-0.27-158.83-0.16-238.25-0.19c-2.22,0-4.44-0.38-7.12-0.62C35.43,198.51,35.43,108.41,35.43,17.86z M216.29,37.5
		c0,60.04,0,119.54,0,179.36c-3.71,0.19-6.24,0.43-8.77,0.43c-30.57,0.03-61.15-0.22-91.71,0.19c-7.49,0.1-9.72-1.93-9.67-9.56
		c0.32-52.86,0.17-105.72,0.17-158.57c0-3.32,0-6.64,0-10.31c-17.93,0-34.64,0-51.73,0c0,77.13,0,153.77,0,230.5
		c71.74,0,142.75,0,213.95,0c0-77.75,0-154.92,0-232.04C250.97,37.5,234.23,37.5,216.29,37.5z"/>
	<path class="st0" d="M397.1,290.64c-13.51,0-25.73,0-37.95,0c-14.28,0-28.59-0.49-42.84,0.18c-8.52,0.4-11.2-1.91-11.15-10.84
		c0.38-70.84,0.21-141.68,0.21-212.52c0-14,0.2-28-0.09-41.99c-0.12-5.77,1.51-8.02,7.7-8.01c79.7,0.18,159.39,0.16,239.09,0.02
		c5.5-0.01,7.49,1.6,7.43,7.28c-0.24,25.71-0.35,51.42,0.05,77.12c0.12,7.55-3.98,7.28-9.17,7.28c-47.13-0.07-94.26-0.04-141.4-0.04
		c-3.37,0-6.74,0-10.83,0c0,11.99,0,23.19,0,35.44c41.66,0,82.91,0,125.26,0c0,9.5,0,17.98,0,26.46c0,18.85-0.25,37.71,0.13,56.56
		c0.13,6.46-1.99,8.31-8.32,8.27c-35.7-0.25-71.41-0.12-107.12-0.11c-10.97,0-10.99,0.02-11,11.37
		C397.09,261.3,397.1,275.5,397.1,290.64z M325.33,37.32c0,77.92,0,154.91,0,232.24c17.47,0,34.37,0,52.03,0
		c0-14.97,0.38-29.22-0.16-43.44c-0.28-7.39,1.73-9.83,9.49-9.74c35.7,0.42,71.4,0.18,107.1,0.18c3.07,0,6.13,0,9.51,0
		c0-18.1,0-35.28,0-53.06c-4.15,0-7.56,0-10.96,0c-35.42,0-70.83-0.14-106.25,0.12c-6.64,0.05-9.03-1.84-8.88-8.74
		c0.42-18.56,0.51-37.14-0.04-55.69c-0.23-7.82,2.54-9.48,9.84-9.44c47.41,0.3,94.82,0.15,142.24,0.15c3.32,0,6.65,0,10.29,0
		c0-18.13,0-35.11,0-52.6C468.04,37.32,397.05,37.32,325.33,37.32z"/>
	<path class="st0" d="M288.09,507.1c-53.62,0-106.6,0-160.81,0c0,12.47,0,24.06,0,35.66c0,9.71-0.19,19.42,0.07,29.13
		c0.14,5.06-1.47,7.11-6.81,7.07c-26.27-0.2-52.54-0.28-78.81,0.04c-6.98,0.08-7.01-3.75-7-8.69c0.06-33.98,0.03-67.96,0.03-101.95
		c0-50.54,0.18-101.09-0.18-151.63c-0.06-8.23,2.25-10.61,10.55-10.58c77.96,0.3,155.92,0.19,233.87,0.16
		c5.29,0,9.95-0.71,9.92,7.51c-0.28,62.54-0.16,125.08-0.19,187.61C288.72,502.84,288.42,504.24,288.09,507.1z M268.83,326.36
		c-2.83-0.25-4.79-0.58-6.75-0.58c-66.81-0.03-133.63,0.1-200.44-0.19c-7.87-0.03-7.84,3.9-7.83,9.56
		c0.09,71.67,0.05,143.34,0.08,215c0,3.04,0.27,6.08,0.43,9.23c17.91,0,34.9,0,52.92,0c0-3.65,0-6.73,0-9.8
		c0-17.42,0.45-34.85-0.19-52.24c-0.31-8.49,1.89-11.23,10.8-11.15c46.82,0.45,93.65,0.21,140.48,0.21c3.33,0,6.66,0,10.52,0
		C268.83,432.52,268.83,379.83,268.83,326.36z"/>
	<path class="st0" d="M216.5,452.25c-20.51,0-39.6,0-58.69,0c-14.85,0-29.7-0.16-44.55,0.08c-5.12,0.08-7.06-1.61-7.02-6.86
		c0.18-25.99,0.18-51.98,0-77.96c-0.04-5.29,1.97-6.87,7.06-6.84c32.27,0.16,64.54-0.01,96.81,0.28c2.14,0.02,6.1,2.88,6.12,4.47
		C216.6,393.9,216.5,422.4,216.5,452.25z M196.75,380.52c-23.34,0-45.98,0-68.92,0c0,17.55,0,34.5,0,51.78c23.2,0,45.84,0,68.92,0
		C196.75,414.95,196.75,398.2,196.75,380.52z"/>
</g>
</svg>
