<?xml version="1.0" encoding="utf-8"?>
<!-- Generator: Adobe Illustrator 24.2.0, SVG Export Plug-In . SVG Version: 6.00 Build 0)  -->
<svg version="1.1" id="Capa_1" xmlns="http://www.w3.org/2000/svg" xmlns:xlink="http://www.w3.org/1999/xlink" x="0px" y="0px"
	 viewBox="0 0 595.28 157.64" style="enable-background:new 0 0 595.28 157.64;" xml:space="preserve">
<style type="text/css">
	.st0{fill:#1C2755;}
</style>
<g>
	<path class="st0" d="M445.21,130.7c-16.37,11.44-18.38,12.17-25.35-6.79c-8.9-24.21-24-29.28-48.26-26.96
		c-18.44,1.77-31.87,5.21-35.19,24.77c-2.95,17.39-15.3,18.24-28.83,17.76c-14.3-0.5-28.59-1.42-42.9-1.64
		c-6.69-0.1-9.09-1.86-8.57-9.16c2.4-33.63,1.38-67.32,0.73-100.99c-0.14-7.46-0.49-13.14,10.25-12.91
		c11.56,0.25,9.16,7.34,9.06,13.95c-0.41,26.3-0.34,52.63-1.43,78.9c-0.47,11.25,2.11,14.86,14.53,15.57
		c19.54,1.12,30.47-5.45,38.51-23.4c12.44-27.78,27.88-54.22,41.69-81.41c4.7-9.25,7.84-9.5,12.94-0.2
		c16.45,29.97,33.34,59.7,50.18,89.45c2.8,4.94,4.51,10.66,9.47,14.21C443.1,124.81,444.15,127.76,445.21,130.7z M375.19,40.31
		c-6.92,16.72-15.4,28.58-19.09,43.11c13.81,0,26.68,0,41.92,0C390.45,69.12,383.76,56.49,375.19,40.31z"/>
	<path class="st0" d="M92.64,140.76c-1.98-4.3-6.29-3.48-9.81-4.39c-20.84-7.82-38.23-19.72-40.92-43.45
		c-2.83-24.99,10.79-42.96,29.85-57.29c14.55-10.93,31.26-17.14,48.92-21.37c7.26-1.74,10.22-0.11,11.84,7.39
		c1.84,8.48-3.37,8.05-8.65,9.22c-18.31,4.04-35.45,10.67-48.78,24.46c-24.48,25.31-15.34,57.28,18.8,66.58
		c11.41,3.11,22.98,4,34.56,2.31c6.45-0.94,11.16-2.14,11.79,6.96c0.63,9.2-5.37,8.88-11.14,9.05
		C116.95,140.6,104.8,140.61,92.64,140.76z"/>
	<path class="st0" d="M515.66,33.63c-14.93,3.3-28.04,9.81-38.36,21.29c-26.23,26.8-17.62,57.76,18.51,67.24
		c11.41,2.99,22.82,3.29,34.39,2.06c3.94-0.42,8.76-3.31,10.1,3.17c1.17,5.64,2.37,11.85-6.34,12.99
		c-31.93,1.32-62.67-0.88-84.9-28.26c-11.96-26.73-6.73-50.15,16.03-70.56c15.67-14.05,34.46-22.14,54.79-26.84
		c5.07-1.17,10.69-4.17,13.09,5.3c2.59,10.24-3.37,10.08-9.79,11.15C520.61,31.61,518.16,32.79,515.66,33.63z"/>
	<path class="st0" d="M190.1,111.9c13.22-25.36,24.7-47.73,36.56-69.91c2.77-5.19,3.4-13.81,14.18-8.25
		c10.23,5.27,5.22,9.99,1.85,15.88c-17.5,30.54-34.87,61.15-52.29,91.75c-6.95-1.8-7.45-7.76-9.71-12.05
		c-13.95-26.53-27.52-53.25-41.45-79.78c-3.31-6.3-7.16-11.1,2.81-15.87c10.78-5.16,11.21,3.07,13.93,8.56
		C166.94,64.34,177.71,86.55,190.1,111.9z"/>
</g>
</svg>
