<?xml version="1.0" encoding="utf-8"?>
<!-- Generator: Adobe Illustrator 24.2.0, SVG Export Plug-In . SVG Version: 6.00 Build 0)  -->
<svg version="1.1" id="Capa_1" xmlns="http://www.w3.org/2000/svg" xmlns:xlink="http://www.w3.org/1999/xlink" x="0px" y="0px"
	 viewBox="0 0 595.28 593.26" style="enable-background:new 0 0 595.28 593.26;" xml:space="preserve">
<style type="text/css">
	.st0{fill:#3F83BB;}
</style>
<g>
	<path class="st0" d="M369.56,580.65c-4.7-0.55-8.98,0.87-13.16,2.81c-39.25,6.76-78.49,6.83-117.73-0.02
		c-4.16-1.95-8.47-3.23-13.13-3.01c-2.93-2.69-6.62-2.55-10.22-2.75c-9.69-3.42-19.38-6.84-29.06-10.25
		c-7.74-3.59-15.48-7.18-23.22-10.77c-9.73-5.82-19.45-11.64-29.18-17.46c-30.67-21.98-56.86-48.43-78.88-79.05
		c-5.87-9.79-11.74-19.58-17.61-29.37c-3.58-7.72-7.16-15.43-10.74-23.15C13.49,370.15,5.07,331.84,5.69,291.84
		c0.57-36.86,9.25-72.05,21.06-106.66c3.59-7.64,7.19-15.29,10.78-22.94c9.11-14.22,18.23-28.43,27.34-42.64
		c19.75-25.28,42.99-46.88,68.95-65.63c9.86-5.86,19.72-11.73,29.57-17.59c7.65-3.57,15.3-7.14,22.96-10.71
		c8.81-3.02,17.62-6.05,26.43-9.07c4.28-1.35,8.55-2.7,12.83-4.05c22.5-4.34,45.23-6.68,68.09-7.67
		c25.61-1.11,50.69,3.45,75.81,7.55c3.64,3.33,8.72,2.16,12.81,4.08c8.82,2.99,17.64,5.99,26.46,8.98
		c7.72,3.57,15.44,7.14,23.16,10.71c9.79,5.88,19.57,11.75,29.36,17.63c26.52,18.66,49.18,41.41,70.01,66.1
		c8.78,14.06,17.56,28.12,26.34,42.18c3.59,7.69,7.18,15.37,10.77,23.06c3.08,8.8,6.16,17.6,9.24,26.4
		c1.75,4.14,0.59,9.18,3.92,12.84c-0.16,4.63,0.69,9.03,2.96,13.12c6.44,39.24,7.11,78.49,0.04,117.73
		c-2.34,4.08-3.04,8.53-2.91,13.15c-3.5,3.61-2.13,8.68-3.87,12.82c-3.03,8.83-6.06,17.65-9.08,26.48
		c-4.19,8.69-8.39,17.38-12.58,26.07c-4.57,7.96-9.14,15.92-13.71,23.88c-19.6,27.2-42.32,51.46-68.32,72.64
		c-13.06,8.2-26.12,16.39-39.18,24.58c-8.69,4.19-17.38,8.38-26.07,12.56c-8.81,3.11-17.61,6.22-26.42,9.32
		C378.13,578.05,373.84,579.35,369.56,580.65z M403.57,397.16c-0.11-0.86-0.22-1.71-0.33-2.57c-1.01-18.47-9.26-33.12-23.61-44.49
		c-9.53-7.54-19.72-14.34-28.62-22.56c-18.5-17.07-17.94-31.19,0.76-48.27c9.87-9.02,21.75-16.11,27.81-28.8
		c15.87-21.6,9.81-43.62,1.23-65.68c-1.21-4.42-0.66-8.68,1.18-12.82c3.08-5.49,6.21-10.91,13.67-10.88
		c15.1-7.94,25.49-22.83,42.1-28.53c-0.03,4.44-0.06,8.89-0.09,13.33c-4.95,8.05-6.32,16.86-5.59,26.13
		c-3.72,21.75-1.76,43.66-1.93,65.51c0.01,13.06,0.02,26.12,0.04,39.18c-0.51,17.98,3.45,24.15,15.97,23.23
		c15.11-1.11,12.85-13.34,13.91-23.26c0.08-4.32,0.16-8.63,0.23-12.95c0.62-4.44,0.89-8.87-0.6-13.22
		c1.21-4.49-0.24-8.73-1.19-13.02c-0.14-4.38-0.28-8.76-0.42-13.14c-0.09-4.33-0.18-8.65-0.26-12.98
		c-0.41-23.59,3.72-47.48-6.43-70.38c-2.93-6.61-2.03-14.5,1.78-21.36c4.85-4.52,10.61-8.28,14.12-15.65
		c-16.21,0-30.99-0.04-45.76,0.01c-55.64,0.19-111.27,0.42-166.91,0.63c-6.55,3.44-11.43,8.79-16.24,14.22
		c-5.71,3.11-10.28,7.51-14.27,12.58c-16.93,14.58-33.87,29.15-50.8,43.73c-9.11,7.29-18.62,14.13-26.27,23.08l-0.01,0.01
		c-5.98,4.97-13.35,8.59-18.39,17.9c18.47,0,34.79-0.03,51.11,0.01c8.64,0.02,18.11-2.02,25.71,0.84c9.02,3.4,3.49,15.66,8.44,22.6
		c0.25,0.35,0.58,0.64,0.88,0.96c1.18,8.89,5.5,16.25,11.13,22.98c6.22,9.95,14.29,17.67,25.75,21.28c3.71,3.43,8.17,4.92,13.14,5.1
		c7.79,4.27,16.66,6.46,24.85,4.64c10.98-2.44,10.48,2.76,9.18,10c-1.9,10.57-0.78,20.58,5.29,29.72c0.37,3.42,1.91,6.15,4.79,8.09
		c-0.37,2.92-3.08,2.62-4.89,3.56c-4.34,0.52-8.68,1.04-13.02,1.56c-32.73,1.29-63.22,8.27-86.31,34.02
		c-7.69,7.26-13.2,15.85-15.97,26.12c-3.7,3.91-2.31,8.62-2.09,13.15c0.07,4.33,0.13,8.67,0.2,13
		c5.27,20.36,20.12,31.67,37.93,40.19c4.65,2.1,9.3,4.2,13.95,6.3c4.01,2.29,8.25,3.72,12.93,3.57c12.57,6.31,26.02,5.12,39.39,4.56
		c4.33-0.06,8.65-0.12,12.98-0.17c14.54,1.21,28.19-3.19,41.59-7.6c19.05-6.28,36.32-15.71,47.13-33.79
		c6.22-7.58,9.92-16.18,10.49-26.05c1.59-4.34,3.38-8.67,0.84-13.28c-0.11-2.44-0.21-4.88-0.32-7.32c0.24-0.32,0.73-0.7,0.67-0.95
		C404.25,398.5,403.87,397.84,403.57,397.16z"/>
	<path class="st0" d="M346.4,198.16c6.04,19.38,8.44,38.97,1.63,58.59c-8.67,24.99-28.57,33.27-56.59,24.12
		c-12.92-7.66-22.5-18.8-31.66-30.38c-1.67-4.92-3.77-9.6-7.28-13.52c0,0,0.13-0.4,0.12-0.39c-1.29-4.07-2.58-8.14-3.86-12.22
		c-0.81-4.34-1.62-8.69-2.43-13.03c-0.08-4.38-0.16-8.77-0.23-13.15c0.46-3.09,0.92-6.18,1.38-9.27
		c10.27-30.71,21.52-37.69,56.6-35.12c4.05,2.01,8.1,4.01,12.15,6.02c3.87,4.62,8.44,8.38,13.75,11.23c-0.14,2,0.81,3.32,2.59,4.11
		C337.17,182.81,341.78,190.49,346.4,198.16z"/>
	<path class="st0" d="M291.04,357.43c3.45-0.17,6.9-0.34,10.35-0.51c29.95,1.54,55.59,11.34,72.45,37.9
		c4.26,12.68,5.43,25.58,2.69,38.75c-11.69,24.56-32.47,34.95-58.34,37.52c-4.74,0.47-9.43,1.46-14.14,2.21
		c-4.35-0.02-8.7-0.03-13.05-0.05c-8.71-2.57-17.57-4.73-26.1-7.79c-27.03-9.71-41.56-28.77-42.23-57.84
		c1.07-3.31,2.15-6.63,3.22-9.94C238.81,370,264.17,362.49,291.04,357.43z"/>
</g>
</svg>
