<?xml version="1.0" encoding="utf-8"?>
<!-- Generator: Adobe Illustrator 24.2.0, SVG Export Plug-In . SVG Version: 6.00 Build 0)  -->
<svg version="1.1" id="Capa_1" xmlns="http://www.w3.org/2000/svg" xmlns:xlink="http://www.w3.org/1999/xlink" x="0px" y="0px"
	 viewBox="0 0 304.7 304.7" style="enable-background:new 0 0 304.7 304.7;" xml:space="preserve">
<style type="text/css">
	.st0{fill:#D31725;}
</style>
<g>
	<g>
		<path class="st0" d="M296.4,53.7c-3.6-5-9.5-8-15.8-8h-20.2c-8.2,0.3-15.5,6-17.9,13.7l-23,73.2c-0.1,0.3-0.3,0.8-1.2,0.8
			c-1,0-1.1-0.7-1.2-1l-18.8-72.4c-2.4-8.4-10-14.4-18.7-14.4h-29.6c-9,0-16.6,6.1-18.7,14.8l-19.1,76l-20.1-67
			C87.7,55.5,74.9,46,60.3,46H37.8C27,46,17.4,51,11,59.7C4.8,68.3,3,78.9,6.1,89l33.2,157.6l0.3,0.6c2.5,7.1,9.1,11.8,16.5,11.8
			h29.6c1.1,0,2.1-0.1,3-0.3h50.8c7.2,0,13.4-4.8,15.1-11.8l15.1-56.7c0.1-0.4,0.3-1,1.1-1c0.8,0,1.1,0.6,1.2,1l14.5,54.3
			c2.4,8.3,10,14.1,18.7,14.1h37c8.3,0,15.8-5.3,18.4-13.1l0.1-0.4l38.3-174.7C300.9,64.7,299.8,58.6,296.4,53.7z M281.8,65.2
			l-0.1,0.4l-38.3,174.3c-0.3,0.4-0.7,0.7-1.2,0.7h-37c-0.7,0-1.1-0.6-1.2-1l-14.5-54c-2.2-8.6-9.7-14.4-18.7-14.4
			c-9,0-16.3,5.8-18.5,14.4l-14.7,55.1h-32.8l17.2-70.7l0.4-1.5l26.2-103.7v-0.1c0.1-0.7,0.7-1,1.2-1h29.9c0.7,0,1.1,0.6,1.2,1
			l18.8,72.2c2.2,8.4,9.5,14.3,18.3,14.5c8.7,0.3,16.3-5.3,18.8-13.6l23-73.2v-0.1c0.1-0.4,0.7-0.8,1.1-0.8h19.8
			c0.6,0,1,0.3,1.1,0.6C282.1,64.7,282,65.1,281.8,65.2z"/>
	</g>
</g>
</svg>
