M48
METRIC,LZ,000.000
;FILE_FORMAT=3:3
;TYPE=PLATED
;Layer: PTH_Through
;EasyEDA v6.5.51, 2025-10-20 22:37:19
;0329cdd6e84a4ea496a32ef4976c9469,12abd119770744df9ef097ef44d34389,10
;Gerber Generator version 0.2
;Holesize 1 = 0.889 mm
T01C0.889
;Holesize 2 = 0.900 mm
T02C0.900
;Holesize 3 = 0.915 mm
T03C0.915
;Holesize 4 = 1.301 mm
T04C1.301
%
G05
G90
T01
X-037465Y005080
X-034925Y005080
X-004953Y050673
X-002413Y050673
T02
X-015367Y010287
X-007747Y010287
X-015494Y003810
X-007874Y003810
T03
X-032385Y005080
X000127Y050673
X012700Y041402
X010160Y041402
X007620Y041402
X005080Y041402
X002540Y041402
X000000Y041402
X-002540Y041402
X-005080Y041402
X-007620Y041402
X-010160Y041402
X-012700Y041402
X-015240Y041402
X-017780Y041402
X-020320Y041402
X-022860Y041402
X-022860Y015902
X-020320Y015902
X-017780Y015902
X-015240Y015902
X-012700Y015902
X-010160Y015902
X-007620Y015902
X-005080Y015902
X-002540Y015902
X000000Y015902
X002540Y015902
X005080Y015902
X007620Y015902
X012700Y015902
X010160Y015902
T04
X-024039Y052070
X-029047Y052070
M30
