G04 Layer: BottomSolderMaskLayer*
G04 EasyEDA v6.5.51, 2025-10-20 22:37:19*
G04 0329cdd6e84a4ea496a32ef4976c9469,12abd119770744df9ef097ef44d34389,10*
G04 Gerber Generator version 0.2*
G04 Scale: 100 percent, Rotated: No, Reflected: No *
G04 Dimensions in millimeters *
G04 leading zeros omitted , absolute positions ,4 integer and 5 decimal *
%FSLAX45Y45*%
%MOMM*%

%AMMACRO1*4,1,8,-0.8085,-0.8382,-0.8382,-0.8082,-0.8382,0.8085,-0.8085,0.8382,0.8082,0.8382,0.8382,0.8085,0.8382,-0.8082,0.8082,-0.8382,-0.8085,-0.8382,0*%
%ADD10C,2.1016*%
%ADD11MACRO1*%
%ADD12C,1.6764*%
%ADD13C,1.9812*%
%ADD14C,1.6256*%
%ADD15C,0.0187*%

%LPD*%
D10*
G01*
X-2403855Y5207000D03*
G01*
X-2904744Y5207000D03*
D11*
G01*
X-3746500Y508000D03*
D12*
G01*
X-3492500Y508000D03*
G01*
X-3238500Y508000D03*
D11*
G01*
X-495300Y5067300D03*
D12*
G01*
X-241300Y5067300D03*
G01*
X12700Y5067300D03*
D13*
G01*
X-1536700Y1028700D03*
G01*
X-774700Y1028700D03*
G01*
X-1549400Y381000D03*
G01*
X-787400Y381000D03*
D14*
G01*
X1270000Y4140200D03*
G01*
X1016000Y4140200D03*
G01*
X762000Y4140200D03*
G01*
X508000Y4140200D03*
G01*
X254000Y4140200D03*
G01*
X0Y4140200D03*
G01*
X-254000Y4140200D03*
G01*
X-508000Y4140200D03*
G01*
X-762000Y4140200D03*
G01*
X-1016000Y4140200D03*
G01*
X-1270000Y4140200D03*
G01*
X-1524000Y4140200D03*
G01*
X-1778000Y4140200D03*
G01*
X-2032000Y4140200D03*
G01*
X-2286000Y4140200D03*
G01*
X-2286000Y1590192D03*
G01*
X-2032000Y1590192D03*
G01*
X-1778000Y1590192D03*
G01*
X-1524000Y1590192D03*
G01*
X-1270000Y1590192D03*
G01*
X-1016000Y1590192D03*
G01*
X-762000Y1590192D03*
G01*
X-508000Y1590192D03*
G01*
X-254000Y1590192D03*
G01*
X0Y1590192D03*
G01*
X254000Y1590192D03*
G01*
X508000Y1590192D03*
G01*
X762000Y1590192D03*
G01*
X1270000Y1590192D03*
G01*
X1016000Y1590192D03*
M02*
