G04 Layer: BottomLayer*
G04 EasyEDA v6.5.51, 2025-10-20 22:37:19*
G04 0329cdd6e84a4ea496a32ef4976c9469,12abd119770744df9ef097ef44d34389,10*
G04 Gerber Generator version 0.2*
G04 Scale: 100 percent, Rotated: No, Reflected: No *
G04 Dimensions in millimeters *
G04 leading zeros omitted , absolute positions ,4 integer and 5 decimal *
%FSLAX45Y45*%
%MOMM*%

%ADD10C,0.6000*%
%ADD11C,2.0000*%
%ADD12R,1.5748X1.5748*%
%ADD13C,1.5748*%
%ADD14C,1.8796*%
%ADD15C,1.5240*%
%ADD16C,0.0125*%

%LPD*%
D10*
X-495302Y5067300D02*
G01*
X-634113Y5067300D01*
X-2032002Y4593005D02*
G01*
X-1108407Y4593005D01*
X-634113Y5067300D01*
X-2904746Y5207000D02*
G01*
X-2290752Y4593005D01*
X-2032002Y4593005D01*
X-2032002Y4593005D02*
G01*
X-2032002Y4140200D01*
X-2032002Y1590192D02*
G01*
X-2032002Y4140200D01*
X-1536702Y1028700D02*
G01*
X-1536702Y1094892D01*
X-2032002Y1590192D01*
X-1549402Y381000D02*
G01*
X-3365502Y381000D01*
X-3492502Y508000D01*
X-1536702Y1028700D02*
G01*
X-1536702Y393700D01*
X-1549402Y381000D01*
X507997Y4140200D02*
G01*
X-241302Y4889500D01*
X-241302Y5067300D01*
X-774702Y1028700D02*
G01*
X-774702Y955522D01*
X-1502437Y227787D01*
X-3466289Y227787D01*
X-3746502Y508000D01*
X-2286002Y4140200D02*
G01*
X-3054301Y4908499D01*
X-3054301Y5265496D01*
X-2960804Y5358993D01*
X-2555852Y5358993D01*
X-2403858Y5207000D01*
X-3238502Y508000D02*
G01*
X-3238502Y3187700D01*
X-2286002Y4140200D01*
X254000Y4140200D02*
G01*
X1498600Y2832100D01*
X1574800Y1320800D01*
X-774700Y1028700D01*
X-787400Y381000D02*
G01*
X1854200Y1079500D01*
X1828800Y2819400D01*
X508000Y4140200D01*
X12697Y5067300D02*
G01*
X-127002Y5207000D01*
X-2403858Y5207000D01*
D11*
G01*
X-2403855Y5207000D03*
G01*
X-2904744Y5207000D03*
D12*
G01*
X-3746500Y508000D03*
D13*
G01*
X-3492500Y508000D03*
G01*
X-3238500Y508000D03*
D12*
G01*
X-495300Y5067300D03*
D13*
G01*
X-241300Y5067300D03*
G01*
X12700Y5067300D03*
D14*
G01*
X-1536700Y1028700D03*
G01*
X-774700Y1028700D03*
G01*
X-1549400Y381000D03*
G01*
X-787400Y381000D03*
D15*
G01*
X1270000Y4140200D03*
G01*
X1016000Y4140200D03*
G01*
X762000Y4140200D03*
G01*
X508000Y4140200D03*
G01*
X254000Y4140200D03*
G01*
X0Y4140200D03*
G01*
X-254000Y4140200D03*
G01*
X-508000Y4140200D03*
G01*
X-762000Y4140200D03*
G01*
X-1016000Y4140200D03*
G01*
X-1270000Y4140200D03*
G01*
X-1524000Y4140200D03*
G01*
X-1778000Y4140200D03*
G01*
X-2032000Y4140200D03*
G01*
X-2286000Y4140200D03*
G01*
X-2286000Y1590192D03*
G01*
X-2032000Y1590192D03*
G01*
X-1778000Y1590192D03*
G01*
X-1524000Y1590192D03*
G01*
X-1270000Y1590192D03*
G01*
X-1016000Y1590192D03*
G01*
X-762000Y1590192D03*
G01*
X-508000Y1590192D03*
G01*
X-254000Y1590192D03*
G01*
X0Y1590192D03*
G01*
X254000Y1590192D03*
G01*
X508000Y1590192D03*
G01*
X762000Y1590192D03*
G01*
X1270000Y1590192D03*
G01*
X1016000Y1590192D03*
M02*
