G04 Layer: TopSilkscreenLayer*
G04 EasyEDA v6.5.51, 2025-10-20 22:37:19*
G04 0329cdd6e84a4ea496a32ef4976c9469,12abd119770744df9ef097ef44d34389,10*
G04 Gerber Generator version 0.2*
G04 Scale: 100 percent, Rotated: No, Reflected: No *
G04 Dimensions in millimeters *
G04 leading zeros omitted , absolute positions ,4 integer and 5 decimal *
%FSLAX45Y45*%
%MOMM*%

%ADD10C,0.1524*%
%ADD11C,0.2540*%
%ADD12C,0.2032*%
%ADD13C,0.0148*%

%LPD*%
D10*
X-2672079Y4585207D02*
G01*
X-2630423Y4694173D01*
X-2672079Y4585207D02*
G01*
X-2713481Y4694173D01*
X-2645918Y4657852D02*
G01*
X-2697987Y4657852D01*
X-2747771Y4585207D02*
G01*
X-2747771Y4694173D01*
X-2747771Y4694173D02*
G01*
X-2810255Y4694173D01*
X-2844545Y4585207D02*
G01*
X-2844545Y4694173D01*
X-2878836Y4585207D02*
G01*
X-2878836Y4694173D01*
X-2878836Y4585207D02*
G01*
X-2920237Y4694173D01*
X-2961894Y4585207D02*
G01*
X-2920237Y4694173D01*
X-2961894Y4585207D02*
G01*
X-2961894Y4694173D01*
X-2996184Y4585207D02*
G01*
X-2996184Y4694173D01*
X-2996184Y4585207D02*
G01*
X-3063747Y4585207D01*
X-2996184Y4637023D02*
G01*
X-3037839Y4637023D01*
X-2996184Y4694173D02*
G01*
X-3063747Y4694173D01*
X-3098037Y4585207D02*
G01*
X-3098037Y4694173D01*
X-3098037Y4585207D02*
G01*
X-3170681Y4694173D01*
X-3170681Y4585207D02*
G01*
X-3170681Y4694173D01*
X-3241294Y4585207D02*
G01*
X-3241294Y4694173D01*
X-3204971Y4585207D02*
G01*
X-3277870Y4585207D01*
X-3353562Y4585207D02*
G01*
X-3312160Y4694173D01*
X-3353562Y4585207D02*
G01*
X-3395218Y4694173D01*
X-3327654Y4657852D02*
G01*
X-3379723Y4657852D01*
X-3507486Y4611115D02*
G01*
X-3502152Y4600702D01*
X-3491737Y4590287D01*
X-3481323Y4585207D01*
X-3460750Y4585207D01*
X-3450336Y4590287D01*
X-3439921Y4600702D01*
X-3434587Y4611115D01*
X-3429507Y4626863D01*
X-3429507Y4652771D01*
X-3434587Y4668265D01*
X-3439921Y4678679D01*
X-3450336Y4689094D01*
X-3460750Y4694173D01*
X-3481323Y4694173D01*
X-3491737Y4689094D01*
X-3502152Y4678679D01*
X-3507486Y4668265D01*
X-3541776Y4585207D02*
G01*
X-3541776Y4694173D01*
X-3607054Y4585207D02*
G01*
X-3596894Y4590287D01*
X-3586479Y4600702D01*
X-3581145Y4611115D01*
X-3576065Y4626863D01*
X-3576065Y4652771D01*
X-3581145Y4668265D01*
X-3586479Y4678679D01*
X-3596894Y4689094D01*
X-3607054Y4694173D01*
X-3627881Y4694173D01*
X-3638295Y4689094D01*
X-3648710Y4678679D01*
X-3654044Y4668265D01*
X-3659123Y4652771D01*
X-3659123Y4626863D01*
X-3654044Y4611115D01*
X-3648710Y4600702D01*
X-3638295Y4590287D01*
X-3627881Y4585207D01*
X-3607054Y4585207D01*
X-3693413Y4585207D02*
G01*
X-3693413Y4694173D01*
X-3693413Y4585207D02*
G01*
X-3766057Y4694173D01*
X-3766057Y4585207D02*
G01*
X-3766057Y4694173D01*
X-3517900Y775715D02*
G01*
X-3517900Y666750D01*
X-3445255Y775715D02*
G01*
X-3445255Y666750D01*
X-3517900Y723900D02*
G01*
X-3445255Y723900D01*
X-3410965Y754887D02*
G01*
X-3400552Y760221D01*
X-3384804Y775715D01*
X-3384804Y666750D01*
X-266700Y5335015D02*
G01*
X-266700Y5226050D01*
X-194055Y5335015D02*
G01*
X-194055Y5226050D01*
X-266700Y5283200D02*
G01*
X-194055Y5283200D01*
X-154431Y5309107D02*
G01*
X-154431Y5314187D01*
X-149352Y5324602D01*
X-144018Y5329936D01*
X-133604Y5335015D01*
X-113029Y5335015D01*
X-102615Y5329936D01*
X-97281Y5324602D01*
X-92202Y5314187D01*
X-92202Y5303773D01*
X-97281Y5293360D01*
X-107695Y5277865D01*
X-159765Y5226050D01*
X-86868Y5226050D01*
X-1155700Y1271015D02*
G01*
X-1155700Y1162050D01*
X-1155700Y1271015D02*
G01*
X-1108963Y1271015D01*
X-1093470Y1265936D01*
X-1088136Y1260602D01*
X-1083055Y1250187D01*
X-1083055Y1239773D01*
X-1088136Y1229360D01*
X-1093470Y1224279D01*
X-1108963Y1219200D01*
X-1155700Y1219200D01*
X-1119378Y1219200D02*
G01*
X-1083055Y1162050D01*
X-1048765Y1250187D02*
G01*
X-1038352Y1255521D01*
X-1022604Y1271015D01*
X-1022604Y1162050D01*
X-1168400Y623315D02*
G01*
X-1168400Y514350D01*
X-1168400Y623315D02*
G01*
X-1121663Y623315D01*
X-1106170Y618236D01*
X-1100836Y612902D01*
X-1095755Y602487D01*
X-1095755Y592073D01*
X-1100836Y581660D01*
X-1106170Y576579D01*
X-1121663Y571500D01*
X-1168400Y571500D01*
X-1132078Y571500D02*
G01*
X-1095755Y514350D01*
X-1056131Y597407D02*
G01*
X-1056131Y602487D01*
X-1051052Y612902D01*
X-1045718Y618236D01*
X-1035304Y623315D01*
X-1014729Y623315D01*
X-1004315Y618236D01*
X-998981Y612902D01*
X-993902Y602487D01*
X-993902Y592073D01*
X-998981Y581660D01*
X-1009395Y566165D01*
X-1061465Y514350D01*
X-988568Y514350D01*
X1994915Y2870200D02*
G01*
X1916937Y2870200D01*
X1901444Y2865120D01*
X1891029Y2854705D01*
X1885950Y2838957D01*
X1885950Y2828544D01*
X1891029Y2813050D01*
X1901444Y2802636D01*
X1916937Y2797555D01*
X1994915Y2797555D01*
X1974088Y2763265D02*
G01*
X1979422Y2752852D01*
X1994915Y2737104D01*
X1885950Y2737104D01*
D11*
X-2154301Y5428792D02*
G01*
X-3154298Y5428792D01*
X-2153767Y4814366D02*
G01*
X-2114295Y4797000D01*
X-2114295Y4897000D01*
X-2153767Y4877307D01*
X-2154301Y4747000D02*
G01*
X-3154298Y4747000D01*
X-2154301Y4747000D02*
G01*
X-2154301Y5506999D01*
X-3154298Y4747000D02*
G01*
X-3154298Y5506999D01*
X-2154301Y5506999D02*
G01*
X-3154298Y5506999D01*
X-2154301Y4966919D02*
G01*
X-3154298Y4966919D01*
D12*
X-3365500Y635000D02*
G01*
X-3111500Y635000D01*
X-3111500Y383539D01*
X-3873500Y383539D01*
X-3873500Y635000D01*
X-3365500Y635000D01*
X-114300Y5194300D02*
G01*
X139700Y5194300D01*
X139700Y4942839D01*
X-622300Y4942839D01*
X-622300Y5194300D01*
X-114300Y5194300D01*
D11*
X-1409700Y1028700D02*
G01*
X-1435100Y1028700D01*
X-901700Y1028700D02*
G01*
X-876300Y1028700D01*
X-1409700Y1028700D02*
G01*
X-1409700Y1104900D01*
X-1409700Y952500D02*
G01*
X-1409700Y1028700D01*
X-901700Y952500D02*
G01*
X-1409700Y952500D01*
X-901700Y1028700D02*
G01*
X-901700Y952500D01*
X-901700Y1104900D02*
G01*
X-901700Y1028700D01*
X-1409700Y1104900D02*
G01*
X-901700Y1104900D01*
X-1422400Y381000D02*
G01*
X-1447800Y381000D01*
X-914400Y381000D02*
G01*
X-889000Y381000D01*
X-1422400Y381000D02*
G01*
X-1422400Y457200D01*
X-1422400Y304800D02*
G01*
X-1422400Y381000D01*
X-914400Y304800D02*
G01*
X-1422400Y304800D01*
X-914400Y381000D02*
G01*
X-914400Y304800D01*
X-914400Y457200D02*
G01*
X-914400Y381000D01*
X-1422400Y457200D02*
G01*
X-914400Y457200D01*
X1854200Y4273550D02*
G01*
X1854200Y1441450D01*
X-3403600Y1441450D01*
X-3403600Y4273550D01*
X1854200Y4273550D01*
X1143000Y3886200D02*
G01*
X1143000Y1828800D01*
X-723900Y1828800D01*
X-723900Y3886200D01*
X1143000Y3886200D01*
X-3022600Y3238500D02*
G01*
X-3022600Y2387600D01*
X-3378200Y2387600D01*
X-3378200Y3238500D01*
X-3022600Y3238500D01*
M02*
